<?xml version="1.0" ?>
<svg data-name="Layer 1" id="Layer_1" viewBox="0 0 70 70" xmlns="http://www.w3.org/2000/svg">
    <defs>
        <style>.cls-1{fill:#007bb0;}.cls-2{fill:#494b4d;}.cls-3{fill:#fff;}</style>
    </defs>
    <title/>
    <rect class="cls-1" height="48" width="47.7" x="11.65" y="11"/>
    <path class="cls-2" d="M64.62,12.22H5a1,1,0,1,1,0-2H64.62a1,1,0,0,1,0,2Z"/>
    <path class="cls-2" d="M65,59.22H5.38a1,1,0,1,1,0-2H65a1,1,0,0,1,0,2Z"/>
    <path class="cls-2" d="M12,66a1,1,0,0,1-1-1V5a1,1,0,0,1,2,0V65A1,1,0,0,1,12,66Z"/>
    <path class="cls-2" d="M58.66,66a1,1,0,0,1-1-1V5a1,1,0,0,1,2,0V65A1,1,0,0,1,58.66,66Z"/>
    <path class="cls-3"
          d="M40.1,35l.77-3.86H37.8l0-2.87a.49.49,0,0,1,.5-.5h2V24.26h-3c-3.49,0-3.49,3.51-3.49,3.51v3.37H30.13V35h3.17v9.26h4.49l0-9.26Z"/>
</svg>